<svg width="52" height="52" viewBox="0 0 52 52" fill="none" xmlns="http://www.w3.org/2000/svg">
<circle cx="26" cy="26" r="26" fill="white"/>
<path d="M23.375 35.1875H20.75V16.8125H28.625C29.321 16.8132 29.9883 17.09 30.4804 17.5821C30.9725 18.0742 31.2493 18.7415 31.25 19.4375V26C31.2493 26.696 30.9725 27.3633 30.4804 27.8554C29.9883 28.3475 29.321 28.6243 28.625 28.625H23.375V35.1875ZM23.375 26H28.625V19.4349H23.375V26Z" fill="black"/>
<path d="M44.9184 27.8559C45.4105 27.3636 45.687 26.6961 45.687 26C45.687 25.3039 45.4105 24.6364 44.9184 24.1441L37.323 16.5487L41.1292 12.7923C41.6906 12.9321 42.2825 12.8826 42.8129 12.6517C43.3434 12.4207 43.7828 12.0211 44.063 11.5149C44.3431 11.0087 44.4484 10.4242 44.3624 9.85207C44.2764 9.27993 44.004 8.75217 43.5875 8.35065C43.1709 7.94914 42.6335 7.69634 42.0586 7.63146C41.4837 7.56658 40.9034 7.69326 40.4079 7.99184C39.9123 8.29043 39.5292 8.74421 39.3179 9.2828C39.1065 9.82139 39.0789 10.4147 39.2392 10.9706L35.4671 14.6928L27.8559 7.08032C27.3636 6.58821 26.6961 6.31175 26 6.31175C25.304 6.31175 24.6364 6.58821 24.1441 7.08032L16.5487 14.6784L12.7923 10.8695C12.9314 10.308 12.8812 9.71621 12.6496 9.18608C12.418 8.65595 12.0179 8.21707 11.5115 7.93752C11.005 7.65797 10.4204 7.55338 9.8484 7.63997C9.27641 7.72657 8.74899 7.99951 8.34795 8.41645C7.94691 8.83339 7.69467 9.37103 7.63038 9.94595C7.56608 10.5209 7.69331 11.101 7.99234 11.5962C8.29136 12.0914 8.74547 12.4741 9.2842 12.6849C9.82293 12.8958 10.4162 12.9229 10.9719 12.7621L14.6928 16.5329L7.08033 24.1441C6.58822 24.6364 6.31177 25.3039 6.31177 26C6.31177 26.6961 6.58822 27.3636 7.08033 27.8559L14.6928 35.4671L10.9719 39.2379C10.4173 39.0782 9.82559 39.1058 9.28836 39.3166C8.75113 39.5273 8.29843 39.9094 8.00042 40.4036C7.70241 40.8978 7.57574 41.4765 7.64005 42.05C7.70435 42.6235 7.95604 43.1598 8.3561 43.5757C8.75616 43.9916 9.28224 44.264 9.85281 44.3505C10.4234 44.4371 11.0066 44.333 11.512 44.0544C12.0174 43.7758 12.4168 43.3383 12.6483 42.8097C12.8797 42.2811 12.9304 41.6908 12.7923 41.1305L16.5487 37.3243L24.1441 44.9184C24.6364 45.4105 25.304 45.6869 26 45.6869C26.6961 45.6869 27.3636 45.4105 27.8559 44.9184L35.4684 37.3072L39.2379 41.0294C39.0782 41.584 39.1058 42.1757 39.3166 42.713C39.5274 43.2502 39.9095 43.7029 40.4036 44.0009C40.8978 44.2989 41.4765 44.4256 42.05 44.3613C42.6235 44.297 43.1598 44.0453 43.5757 43.6452C43.9917 43.2452 44.264 42.7191 44.3505 42.1485C44.4371 41.578 44.333 40.9948 44.0544 40.4894C43.7759 39.984 43.3384 39.5846 42.8097 39.3531C42.2811 39.1216 41.6909 39.071 41.1305 39.209L37.3243 35.4513L44.9184 27.8559ZM26 43.0625L8.93752 26L26 8.9375L43.0625 26L26 43.0625Z" fill="black"/>
</svg>
